<?xml version="1.0" encoding="UTF-8"?>
<svg xmlns="http://www.w3.org/2000/svg" width="2048" height="2048" viewBox="0 0 2048 2048" role="img" aria-label="OKX trading system logo vector trace">
  <defs>
    <linearGradient id="blackGrad" x1="420" y1="350" x2="1600" y2="1640" gradientUnits="userSpaceOnUse">
      <stop offset="0%" stop-color="#0d131b"/>
      <stop offset="45%" stop-color="#05090e"/>
      <stop offset="100%" stop-color="#0b1118"/>
    </linearGradient>
    <linearGradient id="blueGrad" x1="410" y1="1430" x2="1710" y2="570" gradientUnits="userSpaceOnUse">
      <stop offset="0%" stop-color="#0a42ff"/>
      <stop offset="46%" stop-color="#075bff"/>
      <stop offset="100%" stop-color="#0872ff"/>
    </linearGradient>
    <filter id="softEdge" x="-4%" y="-4%" width="108%" height="108%" color-interpolation-filters="sRGB">
      <feDropShadow dx="0" dy="2" stdDeviation="4" flood-color="#000000" flood-opacity="0.18"/>
    </filter>
    <filter id="blueSoft" x="-4%" y="-4%" width="108%" height="108%" color-interpolation-filters="sRGB">
      <feDropShadow dx="0" dy="2" stdDeviation="3" flood-color="#005dff" flood-opacity="0.16"/>
    </filter>
  </defs>
  <g id="black-mark">
    <path d="M 1478.0 537.0 L 1435.0 496.0 L 1388.0 459.0 L 1338.0 427.0 L 1288.0 401.0 L 1223.0 375.0 L 1178.0 362.0 L 1131.0 352.0 L 1059.0 344.0 L 985.0 344.0 L 932.0 349.0 L 878.0 359.0 L 831.0 372.0 L 781.0 390.0 L 726.0 416.0 L 684.0 440.0 L 630.0 478.0 L 578.0 524.0 L 543.0 561.0 L 508.0 605.0 L 478.0 650.0 L 447.0 708.0 L 427.0 757.0 L 413.0 800.0 L 400.0 856.0 L 393.0 904.0 L 390.0 940.0 L 390.0 1013.0 L 398.0 1087.0 L 400.0 1091.0 L 401.0 1103.0 L 406.0 1128.0 L 411.0 1144.0 L 411.0 1149.0 L 413.0 1152.0 L 415.0 1163.0 L 429.0 1207.0 L 452.0 1263.0 L 477.0 1312.0 L 480.0 1315.0 L 619.0 1204.0 L 604.0 1169.0 L 588.0 1122.0 L 579.0 1086.0 L 573.0 1053.0 L 569.0 1013.0 L 568.0 972.0 L 571.0 924.0 L 578.0 881.0 L 586.0 850.0 L 601.0 807.0 L 617.0 772.0 L 635.0 740.0 L 661.0 703.0 L 689.0 670.0 L 719.0 641.0 L 742.0 622.0 L 773.0 600.0 L 805.0 581.0 L 838.0 565.0 L 877.0 550.0 L 917.0 539.0 L 955.0 532.0 L 1006.0 528.0 L 1051.0 529.0 L 1097.0 535.0 L 1133.0 543.0 L 1171.0 555.0 L 1207.0 570.0 L 1241.0 588.0 L 1277.0 611.0 L 1314.0 640.0 L 1346.0 670.0 L 1481.0 542.0 Z" fill="url(#blackGrad)" filter="url(#softEdge)"/>
    <path d="M 1641.0 908.0 L 1631.0 916.0 L 1455.0 1084.0 L 1442.0 1135.0 L 1422.0 1188.0 L 1406.0 1220.0 L 1390.0 1247.0 L 1373.0 1272.0 L 1350.0 1301.0 L 1323.0 1330.0 L 1279.0 1368.0 L 1237.0 1396.0 L 1192.0 1419.0 L 1164.0 1430.0 L 1132.0 1440.0 L 1096.0 1448.0 L 1066.0 1452.0 L 1034.0 1454.0 L 995.0 1453.0 L 954.0 1448.0 L 925.0 1442.0 L 891.0 1432.0 L 853.0 1417.0 L 830.0 1406.0 L 794.0 1385.0 L 768.0 1367.0 L 737.0 1342.0 L 712.0 1318.0 L 687.0 1291.0 L 561.0 1370.0 L 535.0 1385.0 L 535.0 1387.0 L 566.0 1426.0 L 612.0 1473.0 L 644.0 1501.0 L 687.0 1533.0 L 723.0 1556.0 L 765.0 1579.0 L 810.0 1599.0 L 859.0 1616.0 L 906.0 1628.0 L 954.0 1636.0 L 1007.0 1640.0 L 1066.0 1639.0 L 1119.0 1633.0 L 1160.0 1625.0 L 1197.0 1615.0 L 1254.0 1594.0 L 1287.0 1579.0 L 1345.0 1546.0 L 1388.0 1516.0 L 1430.0 1481.0 L 1462.0 1450.0 L 1504.0 1401.0 L 1534.0 1359.0 L 1560.0 1316.0 L 1581.0 1275.0 L 1602.0 1225.0 L 1623.0 1159.0 L 1633.0 1113.0 L 1641.0 1059.0 L 1644.0 1022.0 L 1645.0 981.0 Z" fill="url(#blackGrad)" filter="url(#softEdge)"/>
    <path d="M 1208.0 753.0 L 1187.0 759.0 L 1162.0 769.0 L 1098.0 790.0 L 1087.0 795.0 L 1067.0 801.0 L 1060.0 805.0 L 1060.0 1167.0 L 1061.0 1205.0 L 1069.0 1211.0 L 1208.0 1059.0 Z" fill="url(#blackGrad)" filter="url(#softEdge)"/>
    <path d="M 1008.0 910.0 L 863.0 962.0 L 863.0 1061.0 L 1009.0 1167.0 Z" fill="url(#blackGrad)" filter="url(#softEdge)"/>
  </g>
  <g id="blue-arrow">
    <path d="M 1744.0 569.0 L 1710.0 582.0 L 1698.0 585.0 L 1681.0 592.0 L 1678.0 592.0 L 1658.0 600.0 L 1655.0 600.0 L 1644.0 605.0 L 1641.0 605.0 L 1635.0 608.0 L 1632.0 608.0 L 1629.0 610.0 L 1618.0 613.0 L 1607.0 618.0 L 1604.0 618.0 L 1598.0 621.0 L 1595.0 621.0 L 1592.0 623.0 L 1580.0 626.0 L 1569.0 631.0 L 1557.0 634.0 L 1555.0 636.0 L 1543.0 639.0 L 1532.0 644.0 L 1529.0 644.0 L 1526.0 646.0 L 1514.0 649.0 L 1503.0 654.0 L 1500.0 654.0 L 1497.0 656.0 L 1491.0 657.0 L 1452.0 672.0 L 1449.0 672.0 L 1450.0 675.0 L 1533.0 727.0 L 1538.0 731.0 L 1538.0 733.0 L 1518.0 754.0 L 1513.0 761.0 L 1511.0 762.0 L 1456.0 826.0 L 1438.0 845.0 L 1397.0 893.0 L 1395.0 894.0 L 1353.0 943.0 L 1314.0 986.0 L 1309.0 993.0 L 1299.0 1003.0 L 1272.0 1035.0 L 1247.0 1062.0 L 1242.0 1069.0 L 1240.0 1070.0 L 1211.0 1104.0 L 1074.0 1257.0 L 1071.0 1257.0 L 883.0 1120.0 L 865.0 1108.0 L 861.0 1104.0 L 847.0 1095.0 L 831.0 1082.0 L 826.0 1080.0 L 741.0 1149.0 L 732.0 1155.0 L 725.0 1162.0 L 711.0 1172.0 L 585.0 1274.0 L 565.0 1289.0 L 522.0 1325.0 L 508.0 1335.0 L 485.0 1355.0 L 476.0 1361.0 L 475.0 1363.0 L 470.0 1366.0 L 413.0 1414.0 L 402.0 1422.0 L 392.0 1432.0 L 396.0 1431.0 L 470.0 1385.0 L 472.0 1385.0 L 475.0 1382.0 L 568.0 1325.0 L 571.0 1322.0 L 601.0 1303.0 L 630.0 1286.0 L 673.0 1258.0 L 683.0 1253.0 L 692.0 1246.0 L 694.0 1246.0 L 705.0 1238.0 L 715.0 1233.0 L 718.0 1230.0 L 811.0 1173.0 L 825.0 1163.0 L 830.0 1165.0 L 862.0 1189.0 L 884.0 1207.0 L 980.0 1279.0 L 1004.0 1299.0 L 1037.0 1323.0 L 1038.0 1325.0 L 1047.0 1331.0 L 1052.0 1336.0 L 1076.0 1354.0 L 1081.0 1356.0 L 1168.0 1266.0 L 1266.0 1161.0 L 1366.0 1057.0 L 1398.0 1022.0 L 1405.0 1016.0 L 1418.0 1001.0 L 1612.0 797.0 L 1639.0 824.0 L 1645.0 832.0 L 1690.0 880.0 L 1692.0 880.0 L 1692.0 875.0 L 1694.0 871.0 L 1694.0 864.0 L 1696.0 860.0 L 1697.0 847.0 L 1699.0 842.0 L 1699.0 836.0 L 1702.0 825.0 L 1702.0 818.0 L 1704.0 813.0 L 1705.0 800.0 L 1707.0 795.0 L 1707.0 788.0 L 1710.0 777.0 L 1710.0 770.0 L 1712.0 766.0 L 1712.0 759.0 L 1715.0 748.0 L 1715.0 741.0 L 1717.0 737.0 L 1717.0 731.0 L 1720.0 720.0 L 1720.0 712.0 L 1722.0 708.0 L 1723.0 695.0 L 1727.0 679.0 L 1728.0 666.0 L 1730.0 662.0 L 1730.0 655.0 L 1732.0 650.0 L 1733.0 637.0 L 1735.0 632.0 L 1735.0 626.0 L 1738.0 614.0 L 1738.0 607.0 L 1740.0 603.0 L 1743.0 579.0 L 1745.0 575.0 Z" fill="url(#blueGrad)" filter="url(#blueSoft)"/>
  </g>
</svg>
